mtllib dome1.mtl
o dome1.obj
v 0.258819 1.965926 0.000000
v 0.500000 1.866025 0.000000
v 0.707107 1.707107 0.000000
v 0.866025 1.500000 0.000000
v 0.965926 1.258819 0.000000
v 1.000000 1.000000 0.000000
v 0.224144 1.965926 0.129410
v 0.433013 1.866025 0.250000
v 0.612372 1.707107 0.353553
v 0.750000 1.500000 0.433013
v 0.836516 1.258819 0.482963
v 0.866025 1.000000 0.500000
v 0.129410 1.965926 0.224144
v 0.250000 1.866025 0.433013
v 0.353553 1.707107 0.612372
v 0.433013 1.500000 0.750000
v 0.482963 1.258819 0.836516
v 0.500000 1.000000 0.866025
v 0.000000 1.965926 0.258819
v -0.000000 1.866025 0.500000
v -0.000000 1.707107 0.707107
v -0.000000 1.500000 0.866025
v -0.000000 1.258819 0.965926
v -0.000000 1.000000 1.000000
v -0.129410 1.965926 0.224144
v -0.250000 1.866025 0.433013
v -0.353553 1.707107 0.612372
v -0.433013 1.500000 0.750000
v -0.482963 1.258819 0.836516
v -0.500000 1.000000 0.866025
v -0.224144 1.965926 0.129410
v -0.433013 1.866025 0.250000
v -0.612372 1.707107 0.353553
v -0.750000 1.500000 0.433013
v -0.836516 1.258819 0.482963
v -0.866025 1.000000 0.500000
v -0.258819 1.965926 0.000000
v -0.500000 1.866025 -0.000000
v -0.707107 1.707107 -0.000000
v -0.866025 1.500000 -0.000000
v -0.965926 1.258819 -0.000000
v -1.000000 1.000000 -0.000000
v -0.224144 1.965926 -0.129410
v -0.433013 1.866025 -0.250000
v -0.612372 1.707107 -0.353553
v -0.750000 1.500000 -0.433013
v -0.836516 1.258819 -0.482963
v -0.866025 1.000000 -0.500000
v -0.129410 1.965926 -0.224144
v -0.250000 1.866025 -0.433013
v -0.353553 1.707107 -0.612372
v -0.433013 1.500000 -0.750000
v -0.482963 1.258819 -0.836516
v -0.500000 1.000000 -0.866025
v -0.000000 1.965926 -0.258819
v 0.000000 1.866025 -0.500000
v 0.000000 1.707107 -0.707107
v 0.000000 1.500000 -0.866025
v 0.000000 1.258819 -0.965926
v 0.000000 1.000000 -1.000000
v 0.129410 1.965926 -0.224144
v 0.250000 1.866025 -0.433013
v 0.353553 1.707107 -0.612372
v 0.433013 1.500000 -0.750000
v 0.482963 1.258819 -0.836516
v 0.500000 1.000000 -0.866025
v 0.224144 1.965926 -0.129410
v 0.433013 1.866025 -0.250000
v 0.612372 1.707107 -0.353553
v 0.750000 1.500000 -0.433013
v 0.836516 1.258819 -0.482963
v 0.866025 1.000000 -0.500000
v 0.000000 2.000000 0.000000
v 0.244169 1.905070 0.000000
v 0.471698 1.810824 0.000000
v 0.667082 1.660901 0.000000
v 0.817005 1.465517 0.000000
v 0.911251 1.237988 0.000000
v 0.943396 0.993819 0.000000
v 0.211456 1.905070 0.122084
v 0.408503 1.810824 0.235849
v 0.577710 1.660901 0.333541
v 0.707547 1.465517 0.408503
v 0.789166 1.237988 0.455625
v 0.817005 0.993819 0.471698
v 0.122084 1.905070 0.211456
v 0.235849 1.810824 0.408503
v 0.333541 1.660901 0.577710
v 0.408503 1.465517 0.707547
v 0.455625 1.237988 0.789166
v 0.471698 0.993819 0.817005
v 0.000000 1.905070 0.244169
v -0.000000 1.810824 0.471698
v -0.000000 1.660901 0.667082
v -0.000000 1.465517 0.817005
v -0.000000 1.237988 0.911251
v -0.000000 0.993819 0.943396
v -0.122084 1.905070 0.211456
v -0.235849 1.810824 0.408503
v -0.333541 1.660901 0.577710
v -0.408503 1.465517 0.707547
v -0.455625 1.237988 0.789166
v -0.471698 0.993819 0.817005
v -0.211456 1.905070 0.122084
v -0.408503 1.810824 0.235849
v -0.577710 1.660901 0.333541
v -0.707547 1.465517 0.408503
v -0.789166 1.237988 0.455625
v -0.817005 0.993819 0.471698
v -0.244169 1.905070 0.000000
v -0.471698 1.810824 -0.000000
v -0.667082 1.660901 -0.000000
v -0.817005 1.465517 -0.000000
v -0.911251 1.237988 -0.000000
v -0.943396 0.993819 -0.000000
v -0.211456 1.905070 -0.122084
v -0.408502 1.810824 -0.235849
v -0.577710 1.660901 -0.333541
v -0.707547 1.465517 -0.408503
v -0.789166 1.237988 -0.455625
v -0.817005 0.993819 -0.471698
v -0.122084 1.905070 -0.211456
v -0.235849 1.810824 -0.408503
v -0.333541 1.660901 -0.577710
v -0.408502 1.465517 -0.707547
v -0.455625 1.237988 -0.789166
v -0.471698 0.993819 -0.817005
v 0.000000 1.905070 -0.244169
v 0.000000 1.810824 -0.471698
v 0.000000 1.660901 -0.667082
v 0.000000 1.465517 -0.817005
v 0.000000 1.237988 -0.911251
v 0.000000 0.993819 -0.943396
v 0.122084 1.905070 -0.211456
v 0.235849 1.810824 -0.408503
v 0.333541 1.660901 -0.577710
v 0.408503 1.465517 -0.707547
v 0.455625 1.237988 -0.789166
v 0.471698 0.993819 -0.817005
v 0.211456 1.905070 -0.122084
v 0.408503 1.810824 -0.235849
v 0.577710 1.660901 -0.333541
v 0.707547 1.465517 -0.408502
v 0.789166 1.237988 -0.455625
v 0.817005 0.993819 -0.471698
v 0.000000 1.937215 0.000000
vn -0.258526 -0.966004 0.000000
vn -0.499550 -0.866285 0.000000
vn -0.706689 -0.707524 -0.000000
vn -0.865774 -0.500436 -0.000000
vn -0.965852 -0.259096 0.000000
vn -0.775824 0.630949 -0.000000
vn -0.223890 -0.966004 -0.129263
vn -0.432623 -0.866285 -0.249775
vn -0.612010 -0.707524 -0.353345
vn -0.749782 -0.500436 -0.432887
vn -0.836452 -0.259096 -0.482926
vn -0.671884 0.630949 -0.387912
vn -0.129263 -0.966004 -0.223890
vn -0.249775 -0.866285 -0.432624
vn -0.353344 -0.707525 -0.612010
vn -0.432887 -0.500436 -0.749782
vn -0.482926 -0.259095 -0.836452
vn -0.387912 0.630949 -0.671883
vn -0.000000 -0.966004 -0.258526
vn -0.000000 -0.866285 -0.499550
vn 0.000000 -0.707524 -0.706689
vn 0.000000 -0.500435 -0.865774
vn -0.000000 -0.259096 -0.965852
vn 0.000000 0.630949 -0.775824
vn 0.129263 -0.966004 -0.223890
vn 0.249775 -0.866285 -0.432623
vn 0.353345 -0.707524 -0.612010
vn 0.432887 -0.500436 -0.749782
vn 0.482926 -0.259096 -0.836452
vn 0.387912 0.630949 -0.671883
vn 0.223890 -0.966004 -0.129263
vn 0.432624 -0.866285 -0.249775
vn 0.612010 -0.707525 -0.353344
vn 0.749782 -0.500436 -0.432887
vn 0.836452 -0.259095 -0.482926
vn 0.671883 0.630949 -0.387912
vn 0.258526 -0.966004 -0.000000
vn 0.499550 -0.866285 -0.000000
vn 0.706689 -0.707524 0.000000
vn 0.865774 -0.500435 0.000000
vn 0.965852 -0.259096 -0.000000
vn 0.775824 0.630949 0.000000
vn 0.223890 -0.966004 0.129263
vn 0.432623 -0.866285 0.249775
vn 0.612010 -0.707524 0.353345
vn 0.749782 -0.500436 0.432887
vn 0.836452 -0.259096 0.482926
vn 0.671884 0.630949 0.387912
vn 0.129263 -0.966004 0.223890
vn 0.249775 -0.866285 0.432624
vn 0.353344 -0.707525 0.612010
vn 0.432887 -0.500436 0.749782
vn 0.482926 -0.259095 0.836452
vn 0.387912 0.630949 0.671883
vn 0.000000 -0.966004 0.258526
vn 0.000000 -0.866285 0.499550
vn -0.000000 -0.707524 0.706689
vn -0.000000 -0.500435 0.865774
vn 0.000000 -0.259096 0.965852
vn -0.000000 0.630949 0.775824
vn -0.129263 -0.966004 0.223890
vn -0.249775 -0.866285 0.432623
vn -0.353345 -0.707524 0.612010
vn -0.432887 -0.500436 0.749782
vn -0.482926 -0.259096 0.836452
vn -0.387912 0.630949 0.671883
vn -0.223890 -0.966004 0.129263
vn -0.432624 -0.866285 0.249775
vn -0.612010 -0.707525 0.353344
vn -0.749782 -0.500436 0.432887
vn -0.836452 -0.259095 0.482926
vn -0.671883 0.630949 0.387912
vn 0.000000 -1.000000 0.000000
vn 0.258525 0.966005 0.000000
vn 0.499550 0.866285 0.000000
vn 0.706690 0.707524 -0.000000
vn 0.865774 0.500435 -0.000000
vn 0.965851 0.259096 -0.000000
vn 0.604469 0.796628 -0.000000
vn 0.223889 0.966005 0.129262
vn 0.432623 0.866285 0.249774
vn 0.612011 0.707524 0.353345
vn 0.749782 0.500435 0.432887
vn 0.836452 0.259096 0.482926
vn 0.523486 0.796629 0.302235
vn 0.129262 0.966005 0.223889
vn 0.249774 0.866285 0.432623
vn 0.353345 0.707524 0.612011
vn 0.432887 0.500434 0.749783
vn 0.482926 0.259096 0.836452
vn 0.302234 0.796629 0.523485
vn -0.000000 0.966005 0.258525
vn -0.000000 0.866285 0.499550
vn 0.000000 0.707524 0.706689
vn 0.000000 0.500435 0.865774
vn 0.000000 0.259096 0.965852
vn 0.000000 0.796628 0.604469
vn -0.129262 0.966005 0.223889
vn -0.249774 0.866285 0.432623
vn -0.353345 0.707524 0.612011
vn -0.432887 0.500435 0.749782
vn -0.482926 0.259096 0.836452
vn -0.302235 0.796629 0.523486
vn -0.223889 0.966005 0.129262
vn -0.432623 0.866285 0.249774
vn -0.612011 0.707524 0.353345
vn -0.749783 0.500434 0.432887
vn -0.836452 0.259096 0.482926
vn -0.523485 0.796629 0.302234
vn -0.258525 0.966005 -0.000000
vn -0.499550 0.866285 -0.000000
vn -0.706689 0.707524 0.000000
vn -0.865774 0.500435 0.000000
vn -0.965852 0.259096 0.000000
vn -0.604469 0.796628 0.000000
vn -0.223889 0.966005 -0.129263
vn -0.432623 0.866285 -0.249774
vn -0.612010 0.707524 -0.353345
vn -0.749782 0.500435 -0.432888
vn -0.836452 0.259096 -0.482926
vn -0.523486 0.796629 -0.302235
vn -0.129263 0.966005 -0.223889
vn -0.249775 0.866286 -0.432622
vn -0.353344 0.707524 -0.612011
vn -0.432887 0.500434 -0.749783
vn -0.482926 0.259096 -0.836452
vn -0.302234 0.796629 -0.523485
vn 0.000000 0.966005 -0.258525
vn 0.000000 0.866285 -0.499550
vn -0.000000 0.707524 -0.706690
vn -0.000000 0.500435 -0.865774
vn -0.000000 0.259096 -0.965851
vn -0.000000 0.796628 -0.604469
vn 0.129262 0.966005 -0.223889
vn 0.249774 0.866285 -0.432623
vn 0.353345 0.707524 -0.612011
vn 0.432888 0.500435 -0.749782
vn 0.482926 0.259096 -0.836452
vn 0.302235 0.796629 -0.523486
vn 0.223889 0.966005 -0.129262
vn 0.432623 0.866285 -0.249774
vn 0.612011 0.707524 -0.353345
vn 0.749783 0.500434 -0.432887
vn 0.836452 0.259096 -0.482926
vn 0.523485 0.796629 -0.302234
vn 0.000000 1.000000 -0.000000
vt 0.610962 0.435936
vt 0.628128 0.500000
vt 0.747525 0.500000
vt 0.714363 0.376238
vt 0.850053 0.500000
vt 0.803155 0.324974
vt 0.928725 0.500000
vt 0.871287 0.285637
vt 0.978181 0.500000
vt 0.914117 0.260909
vt 0.995049 0.500000
vt 0.928725 0.252475
vt 0.500000 0.500000
vt 0.564064 0.389038
vt 0.623762 0.285637
vt 0.675026 0.196845
vt 0.714363 0.128713
vt 0.739091 0.085883
vt 0.747525 0.071275
vt 0.500000 0.371872
vt 0.500000 0.252475
vt 0.500000 0.149947
vt 0.500000 0.071275
vt 0.500000 0.021819
vt 0.500000 0.004950
vt 0.435936 0.389038
vt 0.376238 0.285637
vt 0.324974 0.196845
vt 0.285637 0.128713
vt 0.260909 0.085883
vt 0.252475 0.071275
vt 0.389038 0.435936
vt 0.285637 0.376238
vt 0.196845 0.324974
vt 0.128713 0.285637
vt 0.085883 0.260909
vt 0.071275 0.252475
vt 0.371872 0.500000
vt 0.252475 0.500000
vt 0.149947 0.500000
vt 0.071275 0.500000
vt 0.021819 0.500000
vt 0.004950 0.500000
vt 0.389038 0.564064
vt 0.285637 0.623762
vt 0.196845 0.675026
vt 0.128713 0.714363
vt 0.085883 0.739091
vt 0.071275 0.747525
vt 0.435936 0.610962
vt 0.376238 0.714363
vt 0.324974 0.803155
vt 0.285637 0.871287
vt 0.260909 0.914117
vt 0.252475 0.928725
vt 0.500000 0.628128
vt 0.500000 0.747525
vt 0.500000 0.850053
vt 0.500000 0.928725
vt 0.500000 0.978181
vt 0.500000 0.995049
vt 0.564064 0.610962
vt 0.623762 0.714363
vt 0.675026 0.803155
vt 0.714363 0.871287
vt 0.739091 0.914117
vt 0.747525 0.928725
vt 0.610962 0.564064
vt 0.714363 0.623762
vt 0.803155 0.675026
vt 0.871287 0.714363
vt 0.914117 0.739091
vt 0.928725 0.747525
vt 0.714363 0.376238
vt 0.747525 0.500000
vt 0.628128 0.500000
vt 0.610962 0.435936
vt 0.803155 0.324974
vt 0.850053 0.500000
vt 0.871287 0.285637
vt 0.928725 0.500000
vt 0.914117 0.260909
vt 0.978181 0.500000
vt 0.928725 0.252475
vt 0.995049 0.500000
vt 0.500000 0.500000
vt 0.623762 0.285637
vt 0.564064 0.389038
vt 0.675026 0.196845
vt 0.714363 0.128713
vt 0.739091 0.085883
vt 0.747525 0.071275
vt 0.500000 0.252475
vt 0.500000 0.371872
vt 0.500000 0.149947
vt 0.500000 0.071275
vt 0.500000 0.021819
vt 0.500000 0.004950
vt 0.376238 0.285637
vt 0.435936 0.389038
vt 0.324974 0.196845
vt 0.285637 0.128713
vt 0.260909 0.085883
vt 0.252475 0.071275
vt 0.285637 0.376238
vt 0.389038 0.435936
vt 0.196845 0.324974
vt 0.128713 0.285637
vt 0.085883 0.260909
vt 0.071275 0.252475
vt 0.252475 0.500000
vt 0.371872 0.500000
vt 0.149947 0.500000
vt 0.071275 0.500000
vt 0.021819 0.500000
vt 0.004950 0.500000
vt 0.285637 0.623762
vt 0.389038 0.564064
vt 0.196845 0.675026
vt 0.128713 0.714363
vt 0.085883 0.739091
vt 0.071275 0.747525
vt 0.376238 0.714363
vt 0.435936 0.610962
vt 0.324974 0.803155
vt 0.285637 0.871287
vt 0.260909 0.914117
vt 0.252475 0.928725
vt 0.500000 0.747525
vt 0.500000 0.628128
vt 0.500000 0.850053
vt 0.500000 0.928725
vt 0.500000 0.978181
vt 0.500000 0.995049
vt 0.623762 0.714363
vt 0.564064 0.610962
vt 0.675026 0.803155
vt 0.714363 0.871287
vt 0.739091 0.914117
vt 0.747525 0.928725
vt 0.714363 0.623762
vt 0.610962 0.564064
vt 0.803155 0.675026
vt 0.871287 0.714363
vt 0.914117 0.739091
vt 0.928725 0.747525
g dome
usemtl Material1
f 7/1/7 1/2/1 2/3/2 8/4/8 
f 8/4/8 2/3/2 3/5/3 9/6/9 
f 9/6/9 3/5/3 4/7/4 10/8/10 
f 10/8/10 4/7/4 5/9/5 11/10/11 
f 11/10/11 5/9/5 6/11/6 12/12/12 
f 73/13/73 1/2/1 7/1/7 
f 13/14/13 7/1/7 8/4/8 14/15/14 
f 14/15/14 8/4/8 9/6/9 15/16/15 
f 15/16/15 9/6/9 10/8/10 16/17/16 
f 16/17/16 10/8/10 11/10/11 17/18/17 
f 17/18/17 11/10/11 12/12/12 18/19/18 
f 73/13/73 7/1/7 13/14/13 
f 19/20/19 13/14/13 14/15/14 20/21/20 
f 20/21/20 14/15/14 15/16/15 21/22/21 
f 21/22/21 15/16/15 16/17/16 22/23/22 
f 22/23/22 16/17/16 17/18/17 23/24/23 
f 23/24/23 17/18/17 18/19/18 24/25/24 
f 73/13/73 13/14/13 19/20/19 
f 25/26/25 19/20/19 20/21/20 26/27/26 
f 26/27/26 20/21/20 21/22/21 27/28/27 
f 27/28/27 21/22/21 22/23/22 28/29/28 
f 28/29/28 22/23/22 23/24/23 29/30/29 
f 29/30/29 23/24/23 24/25/24 30/31/30 
f 73/13/73 19/20/19 25/26/25 
f 31/32/31 25/26/25 26/27/26 32/33/32 
f 32/33/32 26/27/26 27/28/27 33/34/33 
f 33/34/33 27/28/27 28/29/28 34/35/34 
f 34/35/34 28/29/28 29/30/29 35/36/35 
f 35/36/35 29/30/29 30/31/30 36/37/36 
f 73/13/73 25/26/25 31/32/31 
f 37/38/37 31/32/31 32/33/32 38/39/38 
f 38/39/38 32/33/32 33/34/33 39/40/39 
f 39/40/39 33/34/33 34/35/34 40/41/40 
f 40/41/40 34/35/34 35/36/35 41/42/41 
f 41/42/41 35/36/35 36/37/36 42/43/42 
f 73/13/73 31/32/31 37/38/37 
f 43/44/43 37/38/37 38/39/38 44/45/44 
f 44/45/44 38/39/38 39/40/39 45/46/45 
f 45/46/45 39/40/39 40/41/40 46/47/46 
f 46/47/46 40/41/40 41/42/41 47/48/47 
f 47/48/47 41/42/41 42/43/42 48/49/48 
f 73/13/73 37/38/37 43/44/43 
f 49/50/49 43/44/43 44/45/44 50/51/50 
f 50/51/50 44/45/44 45/46/45 51/52/51 
f 51/52/51 45/46/45 46/47/46 52/53/52 
f 52/53/52 46/47/46 47/48/47 53/54/53 
f 53/54/53 47/48/47 48/49/48 54/55/54 
f 73/13/73 43/44/43 49/50/49 
f 55/56/55 49/50/49 50/51/50 56/57/56 
f 56/57/56 50/51/50 51/52/51 57/58/57 
f 57/58/57 51/52/51 52/53/52 58/59/58 
f 58/59/58 52/53/52 53/54/53 59/60/59 
f 59/60/59 53/54/53 54/55/54 60/61/60 
f 73/13/73 49/50/49 55/56/55 
f 61/62/61 55/56/55 56/57/56 62/63/62 
f 62/63/62 56/57/56 57/58/57 63/64/63 
f 63/64/63 57/58/57 58/59/58 64/65/64 
f 64/65/64 58/59/58 59/60/59 65/66/65 
f 65/66/65 59/60/59 60/61/60 66/67/66 
f 73/13/73 55/56/55 61/62/61 
f 67/68/67 61/62/61 62/63/62 68/69/68 
f 68/69/68 62/63/62 63/64/63 69/70/69 
f 69/70/69 63/64/63 64/65/64 70/71/70 
f 70/71/70 64/65/64 65/66/65 71/72/71 
f 71/72/71 65/66/65 66/67/66 72/73/72 
f 73/13/73 61/62/61 67/68/67 
f 1/2/1 67/68/67 68/69/68 2/3/2 
f 2/3/2 68/69/68 69/70/69 3/5/3 
f 3/5/3 69/70/69 70/71/70 4/7/4 
f 4/7/4 70/71/70 71/72/71 5/9/5 
f 5/9/5 71/72/71 72/73/72 6/11/6 
f 73/13/73 67/68/67 1/2/1 
f 81/74/81 75/75/75 74/76/74 80/77/80 
f 82/78/82 76/79/76 75/75/75 81/74/81 
f 83/80/83 77/81/77 76/79/76 82/78/82 
f 84/82/84 78/83/78 77/81/77 83/80/83 
f 85/84/85 79/85/79 78/83/78 84/82/84 
f 80/77/80 74/76/74 146/86/146 
f 87/87/87 81/74/81 80/77/80 86/88/86 
f 88/89/88 82/78/82 81/74/81 87/87/87 
f 89/90/89 83/80/83 82/78/82 88/89/88 
f 90/91/90 84/82/84 83/80/83 89/90/89 
f 91/92/91 85/84/85 84/82/84 90/91/90 
f 86/88/86 80/77/80 146/86/146 
f 93/93/93 87/87/87 86/88/86 92/94/92 
f 94/95/94 88/89/88 87/87/87 93/93/93 
f 95/96/95 89/90/89 88/89/88 94/95/94 
f 96/97/96 90/91/90 89/90/89 95/96/95 
f 97/98/97 91/92/91 90/91/90 96/97/96 
f 92/94/92 86/88/86 146/86/146 
f 99/99/99 93/93/93 92/94/92 98/100/98 
f 100/101/100 94/95/94 93/93/93 99/99/99 
f 101/102/101 95/96/95 94/95/94 100/101/100 
f 102/103/102 96/97/96 95/96/95 101/102/101 
f 103/104/103 97/98/97 96/97/96 102/103/102 
f 98/100/98 92/94/92 146/86/146 
f 105/105/105 99/99/99 98/100/98 104/106/104 
f 106/107/106 100/101/100 99/99/99 105/105/105 
f 107/108/107 101/102/101 100/101/100 106/107/106 
f 108/109/108 102/103/102 101/102/101 107/108/107 
f 109/110/109 103/104/103 102/103/102 108/109/108 
f 104/106/104 98/100/98 146/86/146 
f 111/111/111 105/105/105 104/106/104 110/112/110 
f 112/113/112 106/107/106 105/105/105 111/111/111 
f 113/114/113 107/108/107 106/107/106 112/113/112 
f 114/115/114 108/109/108 107/108/107 113/114/113 
f 115/116/115 109/110/109 108/109/108 114/115/114 
f 110/112/110 104/106/104 146/86/146 
f 117/117/117 111/111/111 110/112/110 116/118/116 
f 118/119/118 112/113/112 111/111/111 117/117/117 
f 119/120/119 113/114/113 112/113/112 118/119/118 
f 120/121/120 114/115/114 113/114/113 119/120/119 
f 121/122/121 115/116/115 114/115/114 120/121/120 
f 116/118/116 110/112/110 146/86/146 
f 123/123/123 117/117/117 116/118/116 122/124/122 
f 124/125/124 118/119/118 117/117/117 123/123/123 
f 125/126/125 119/120/119 118/119/118 124/125/124 
f 126/127/126 120/121/120 119/120/119 125/126/125 
f 127/128/127 121/122/121 120/121/120 126/127/126 
f 122/124/122 116/118/116 146/86/146 
f 129/129/129 123/123/123 122/124/122 128/130/128 
f 130/131/130 124/125/124 123/123/123 129/129/129 
f 131/132/131 125/126/125 124/125/124 130/131/130 
f 132/133/132 126/127/126 125/126/125 131/132/131 
f 133/134/133 127/128/127 126/127/126 132/133/132 
f 128/130/128 122/124/122 146/86/146 
f 135/135/135 129/129/129 128/130/128 134/136/134 
f 136/137/136 130/131/130 129/129/129 135/135/135 
f 137/138/137 131/132/131 130/131/130 136/137/136 
f 138/139/138 132/133/132 131/132/131 137/138/137 
f 139/140/139 133/134/133 132/133/132 138/139/138 
f 134/136/134 128/130/128 146/86/146 
f 141/141/141 135/135/135 134/136/134 140/142/140 
f 142/143/142 136/137/136 135/135/135 141/141/141 
f 143/144/143 137/138/137 136/137/136 142/143/142 
f 144/145/144 138/139/138 137/138/137 143/144/143 
f 145/146/145 139/140/139 138/139/138 144/145/144 
f 140/142/140 134/136/134 146/86/146 
f 75/75/75 141/141/141 140/142/140 74/76/74 
f 76/79/76 142/143/142 141/141/141 75/75/75 
f 77/81/77 143/144/143 142/143/142 76/79/76 
f 78/83/78 144/145/144 143/144/143 77/81/77 
f 79/85/79 145/146/145 144/145/144 78/83/78 
f 74/76/74 140/142/140 146/86/146 
f 109/110/109 115/116/115 42/43/42 36/37/36 
f 103/104/103 109/110/109 36/37/36 30/31/30 
f 97/98/97 103/104/103 30/31/30 24/25/24 
f 91/92/91 97/98/97 24/25/24 18/19/18 
f 85/84/85 91/92/91 18/19/18 12/12/12 
f 79/85/79 85/84/85 12/12/12 6/11/6 
f 145/146/145 79/85/79 6/11/6 72/73/72 
f 139/140/139 145/146/145 72/73/72 66/67/66 
f 133/134/133 139/140/139 66/67/66 60/61/60 
f 127/128/127 133/134/133 60/61/60 54/55/54 
f 121/122/121 127/128/127 54/55/54 48/49/48 
f 115/116/115 121/122/121 48/49/48 42/43/42 
