o skinny hex tower.obj
v 0.793651 -1.130004 0.000000
v 0.793651 -0.065002 0.000000
v 0.793651 1.000000 0.000000
v 0.793651 2.065002 0.000000
v 0.793651 3.130004 0.000000
v 0.396825 -1.130004 0.687322
v 0.396825 -0.065002 0.687322
v 0.396825 1.000000 0.687322
v 0.396825 2.065002 0.687322
v 0.396825 3.130004 0.687322
v -0.396825 -1.130004 0.687322
v -0.396825 -0.065002 0.687322
v -0.396825 1.000000 0.687322
v -0.396825 2.065002 0.687322
v -0.396825 3.130004 0.687322
v -0.793651 -1.130004 0.000000
v -0.793651 -0.065002 0.000000
v -0.793651 1.000000 0.000000
v -0.793651 2.065002 0.000000
v -0.793651 3.130004 0.000000
v -0.396825 -1.130004 -0.687322
v -0.396825 -0.065002 -0.687322
v -0.396825 1.000000 -0.687322
v -0.396825 2.065002 -0.687322
v -0.396825 3.130004 -0.687322
v 0.396825 -1.130004 -0.687322
v 0.396825 -0.065002 -0.687322
v 0.396825 1.000000 -0.687322
v 0.396825 2.065002 -0.687322
v 0.396825 3.130004 -0.687322
v 0.000000 3.130004 0.000000
v 0.000000 -1.130004 0.000000
vn 0.654654 -0.755929 -0.000000
vn 1.000000 0.000000 -0.000000
vn 1.000000 0.000000 -0.000000
vn 1.000000 0.000000 -0.000000
vn 0.654654 0.755929 -0.000000
vn 0.327327 -0.755929 0.566947
vn 0.500000 0.000000 0.866025
vn 0.500000 0.000000 0.866025
vn 0.500000 0.000000 0.866025
vn 0.327327 0.755929 0.566947
vn -0.327327 -0.755929 0.566947
vn -0.500000 0.000000 0.866025
vn -0.500000 0.000000 0.866025
vn -0.500000 0.000000 0.866025
vn -0.327327 0.755929 0.566947
vn -0.654654 -0.755929 -0.000000
vn -1.000000 0.000000 -0.000000
vn -1.000000 0.000000 -0.000000
vn -1.000000 0.000000 -0.000000
vn -0.654654 0.755929 -0.000000
vn -0.327327 -0.755929 -0.566947
vn -0.500000 0.000000 -0.866025
vn -0.500000 0.000000 -0.866025
vn -0.500000 0.000000 -0.866025
vn -0.327327 0.755929 -0.566947
vn 0.327327 -0.755929 -0.566947
vn 0.500000 0.000000 -0.866025
vn 0.500000 0.000000 -0.866026
vn 0.500000 0.000000 -0.866026
vn 0.327327 0.755929 -0.566947
vn 0.000000 1.000000 0.000000
vn 0.000000 -1.000000 0.000000
vt 0.747525 0.071275
vt 0.995049 0.500000
vt 0.995049 0.500000
vt 0.747525 0.071275
vt 0.995049 0.500000
vt 0.747525 0.071275
vt 0.995049 0.500000
vt 0.747525 0.071275
vt 0.995049 0.500000
vt 0.747525 0.071275
vt 0.500000 0.500000
vt 0.500000 0.500000
vt 0.252475 0.071275
vt 0.252475 0.071275
vt 0.252475 0.071275
vt 0.252475 0.071275
vt 0.252475 0.071275
vt 0.004950 0.500000
vt 0.004950 0.500000
vt 0.004950 0.500000
vt 0.004950 0.500000
vt 0.004950 0.500000
vt 0.252475 0.928725
vt 0.252475 0.928725
vt 0.252475 0.928725
vt 0.252475 0.928725
vt 0.252475 0.928725
vt 0.747525 0.928725
vt 0.747525 0.928725
vt 0.747525 0.928725
vt 0.747525 0.928725
vt 0.747525 0.928725
g Cylinder
f 6/1/6 1/2/1 2/3/2 7/4/7 
f 7/4/7 2/3/2 3/5/3 8/6/8 
f 8/6/8 3/5/3 4/7/4 9/8/9 
f 9/8/9 4/7/4 5/9/5 10/10/10 
f 10/10/10 5/9/5 31/11/31 
f 1/2/1 6/1/6 32/12/32 
f 11/13/11 6/1/6 7/4/7 12/14/12 
f 12/14/12 7/4/7 8/6/8 13/15/13 
f 13/15/13 8/6/8 9/8/9 14/16/14 
f 14/16/14 9/8/9 10/10/10 15/17/15 
f 15/17/15 10/10/10 31/11/31 
f 6/1/6 11/13/11 32/12/32 
f 16/18/16 11/13/11 12/14/12 17/19/17 
f 17/19/17 12/14/12 13/15/13 18/20/18 
f 18/20/18 13/15/13 14/16/14 19/21/19 
f 19/21/19 14/16/14 15/17/15 20/22/20 
f 20/22/20 15/17/15 31/11/31 
f 11/13/11 16/18/16 32/12/32 
f 21/23/21 16/18/16 17/19/17 22/24/22 
f 22/24/22 17/19/17 18/20/18 23/25/23 
f 23/25/23 18/20/18 19/21/19 24/26/24 
f 24/26/24 19/21/19 20/22/20 25/27/25 
f 25/27/25 20/22/20 31/11/31 
f 16/18/16 21/23/21 32/12/32 
f 26/28/26 21/23/21 22/24/22 27/29/27 
f 27/29/27 22/24/22 23/25/23 28/30/28 
f 28/30/28 23/25/23 24/26/24 29/31/29 
f 29/31/29 24/26/24 25/27/25 30/32/30 
f 30/32/30 25/27/25 31/11/31 
f 21/23/21 26/28/26 32/12/32 
f 1/2/1 26/28/26 27/29/27 2/3/2 
f 2/3/2 27/29/27 28/30/28 3/5/3 
f 3/5/3 28/30/28 29/31/29 4/7/4 
f 4/7/4 29/31/29 30/32/30 5/9/5 
f 5/9/5 30/32/30 31/11/31 
f 26/28/26 1/2/1 32/12/32 
