mtllib skydome.mtl
o skydome.obj
v 0.258819 1.965926 0.000000
v 0.500000 1.866025 0.000000
v 0.707107 1.707107 0.000000
v 0.866025 1.500000 0.000000
v 0.965926 1.258819 0.000000
v 1.000000 1.000000 0.000000
v 0.224144 1.965926 0.129410
v 0.433013 1.866025 0.250000
v 0.612372 1.707107 0.353553
v 0.750000 1.500000 0.433013
v 0.836516 1.258819 0.482963
v 0.866025 1.000000 0.500000
v 0.129410 1.965926 0.224144
v 0.250000 1.866025 0.433013
v 0.353553 1.707107 0.612372
v 0.433013 1.500000 0.750000
v 0.482963 1.258819 0.836516
v 0.500000 1.000000 0.866025
v 0.000000 1.965926 0.258819
v -0.000000 1.866025 0.500000
v -0.000000 1.707107 0.707107
v -0.000000 1.500000 0.866025
v -0.000000 1.258819 0.965926
v -0.000000 1.000000 1.000000
v -0.129410 1.965926 0.224144
v -0.250000 1.866025 0.433013
v -0.353553 1.707107 0.612372
v -0.433013 1.500000 0.750000
v -0.482963 1.258819 0.836516
v -0.500000 1.000000 0.866025
v -0.224144 1.965926 0.129410
v -0.433013 1.866025 0.250000
v -0.612372 1.707107 0.353553
v -0.750000 1.500000 0.433013
v -0.836516 1.258819 0.482963
v -0.866025 1.000000 0.500000
v -0.258819 1.965926 0.000000
v -0.500000 1.866025 -0.000000
v -0.707107 1.707107 -0.000000
v -0.866025 1.500000 -0.000000
v -0.965926 1.258819 -0.000000
v -1.000000 1.000000 -0.000000
v -0.224144 1.965926 -0.129410
v -0.433013 1.866025 -0.250000
v -0.612372 1.707107 -0.353553
v -0.750000 1.500000 -0.433013
v -0.836516 1.258819 -0.482963
v -0.866025 1.000000 -0.500000
v -0.129410 1.965926 -0.224144
v -0.250000 1.866025 -0.433013
v -0.353553 1.707107 -0.612372
v -0.433013 1.500000 -0.750000
v -0.482963 1.258819 -0.836516
v -0.500000 1.000000 -0.866025
v -0.000000 1.965926 -0.258819
v 0.000000 1.866025 -0.500000
v 0.000000 1.707107 -0.707107
v 0.000000 1.500000 -0.866025
v 0.000000 1.258819 -0.965926
v 0.000000 1.000000 -1.000000
v 0.129410 1.965926 -0.224144
v 0.250000 1.866025 -0.433013
v 0.353553 1.707107 -0.612372
v 0.433013 1.500000 -0.750000
v 0.482963 1.258819 -0.836516
v 0.500000 1.000000 -0.866025
v 0.224144 1.965926 -0.129410
v 0.433013 1.866025 -0.250000
v 0.612372 1.707107 -0.353553
v 0.750000 1.500000 -0.433013
v 0.836516 1.258819 -0.482963
v 0.866025 1.000000 -0.500000
v 0.000000 2.000000 0.000000
v 0.244169 1.905070 0.000000
v 0.471698 1.810824 0.000000
v 0.667082 1.660901 0.000000
v 0.817005 1.465517 0.000000
v 0.911251 1.237988 0.000000
v 0.943396 0.993819 0.000000
v 0.211456 1.905070 0.122084
v 0.408503 1.810824 0.235849
v 0.577710 1.660901 0.333541
v 0.707547 1.465517 0.408503
v 0.789166 1.237988 0.455625
v 0.817005 0.993819 0.471698
v 0.122084 1.905070 0.211456
v 0.235849 1.810824 0.408503
v 0.333541 1.660901 0.577710
v 0.408503 1.465517 0.707547
v 0.455625 1.237988 0.789166
v 0.471698 0.993819 0.817005
v 0.000000 1.905070 0.244169
v -0.000000 1.810824 0.471698
v -0.000000 1.660901 0.667082
v -0.000000 1.465517 0.817005
v -0.000000 1.237988 0.911251
v -0.000000 0.993819 0.943396
v -0.122084 1.905070 0.211456
v -0.235849 1.810824 0.408503
v -0.333541 1.660901 0.577710
v -0.408503 1.465517 0.707547
v -0.455625 1.237988 0.789166
v -0.471698 0.993819 0.817005
v -0.211456 1.905070 0.122084
v -0.408503 1.810824 0.235849
v -0.577710 1.660901 0.333541
v -0.707547 1.465517 0.408503
v -0.789166 1.237988 0.455625
v -0.817005 0.993819 0.471698
v -0.244169 1.905070 0.000000
v -0.471698 1.810824 -0.000000
v -0.667082 1.660901 -0.000000
v -0.817005 1.465517 -0.000000
v -0.911251 1.237988 -0.000000
v -0.943396 0.993819 -0.000000
v -0.211456 1.905070 -0.122084
v -0.408502 1.810824 -0.235849
v -0.577710 1.660901 -0.333541
v -0.707547 1.465517 -0.408503
v -0.789166 1.237988 -0.455625
v -0.817005 0.993819 -0.471698
v -0.122084 1.905070 -0.211456
v -0.235849 1.810824 -0.408503
v -0.333541 1.660901 -0.577710
v -0.408502 1.465517 -0.707547
v -0.455625 1.237988 -0.789166
v -0.471698 0.993819 -0.817005
v 0.000000 1.905070 -0.244169
v 0.000000 1.810824 -0.471698
v 0.000000 1.660901 -0.667082
v 0.000000 1.465517 -0.817005
v 0.000000 1.237988 -0.911251
v 0.000000 0.993819 -0.943396
v 0.122084 1.905070 -0.211456
v 0.235849 1.810824 -0.408503
v 0.333541 1.660901 -0.577710
v 0.408503 1.465517 -0.707547
v 0.455625 1.237988 -0.789166
v 0.471698 0.993819 -0.817005
v 0.211456 1.905070 -0.122084
v 0.408503 1.810824 -0.235849
v 0.577710 1.660901 -0.333541
v 0.707547 1.465517 -0.408502
v 0.789166 1.237988 -0.455625
v 0.817005 0.993819 -0.471698
v 0.000000 1.937215 0.000000
vn 0.258526 0.966004 -0.000000
vn 0.499550 0.866285 -0.000000
vn 0.706689 0.707524 0.000000
vn 0.865774 0.500435 0.000000
vn 0.965852 0.259096 -0.000000
vn 0.775824 -0.630949 0.000000
vn 0.223890 0.966004 0.129263
vn 0.432623 0.866285 0.249775
vn 0.612010 0.707524 0.353344
vn 0.749782 0.500436 0.432887
vn 0.836452 0.259096 0.482926
vn 0.671883 -0.630949 0.387912
vn 0.129263 0.966004 0.223890
vn 0.249776 0.866285 0.432623
vn 0.353344 0.707525 0.612010
vn 0.432887 0.500436 0.749782
vn 0.482926 0.259095 0.836452
vn 0.387912 -0.630949 0.671883
vn 0.000000 0.966004 0.258526
vn 0.000000 0.866285 0.499550
vn -0.000000 0.707524 0.706689
vn -0.000000 0.500435 0.865774
vn 0.000000 0.259096 0.965852
vn -0.000000 -0.630949 0.775824
vn -0.129263 0.966004 0.223890
vn -0.249775 0.866285 0.432623
vn -0.353344 0.707524 0.612010
vn -0.432887 0.500436 0.749782
vn -0.482926 0.259096 0.836452
vn -0.387912 -0.630949 0.671883
vn -0.223890 0.966004 0.129263
vn -0.432623 0.866285 0.249776
vn -0.612010 0.707525 0.353344
vn -0.749782 0.500436 0.432887
vn -0.836452 0.259095 0.482926
vn -0.671883 -0.630949 0.387912
vn -0.258526 0.966004 0.000000
vn -0.499550 0.866285 0.000000
vn -0.706689 0.707524 -0.000000
vn -0.865774 0.500435 -0.000000
vn -0.965852 0.259096 0.000000
vn -0.775824 -0.630949 -0.000000
vn -0.223890 0.966004 -0.129263
vn -0.432623 0.866285 -0.249775
vn -0.612010 0.707524 -0.353344
vn -0.749782 0.500436 -0.432887
vn -0.836452 0.259096 -0.482926
vn -0.671883 -0.630949 -0.387912
vn -0.129263 0.966004 -0.223890
vn -0.249776 0.866285 -0.432623
vn -0.353344 0.707525 -0.612010
vn -0.432887 0.500436 -0.749782
vn -0.482926 0.259095 -0.836452
vn -0.387912 -0.630949 -0.671883
vn -0.000000 0.966004 -0.258526
vn -0.000000 0.866285 -0.499550
vn 0.000000 0.707524 -0.706689
vn 0.000000 0.500435 -0.865774
vn -0.000000 0.259096 -0.965852
vn 0.000000 -0.630949 -0.775824
vn 0.129263 0.966004 -0.223890
vn 0.249775 0.866285 -0.432623
vn 0.353344 0.707524 -0.612010
vn 0.432887 0.500436 -0.749782
vn 0.482926 0.259096 -0.836452
vn 0.387912 -0.630949 -0.671883
vn 0.223890 0.966004 -0.129263
vn 0.432623 0.866285 -0.249776
vn 0.612010 0.707525 -0.353344
vn 0.749782 0.500436 -0.432887
vn 0.836452 0.259095 -0.482926
vn 0.671883 -0.630949 -0.387912
vn 0.000000 1.000000 -0.000000
vn -0.258524 -0.966005 -0.000000
vn -0.499549 -0.866285 -0.000000
vn -0.706690 -0.707524 0.000000
vn -0.865774 -0.500435 0.000000
vn -0.965851 -0.259096 0.000000
vn -0.604469 -0.796629 0.000000
vn -0.223889 -0.966005 -0.129263
vn -0.432622 -0.866285 -0.249775
vn -0.612011 -0.707524 -0.353344
vn -0.749782 -0.500435 -0.432887
vn -0.836452 -0.259096 -0.482926
vn -0.523485 -0.796628 -0.302235
vn -0.129263 -0.966005 -0.223888
vn -0.249775 -0.866285 -0.432622
vn -0.353344 -0.707524 -0.612011
vn -0.432887 -0.500434 -0.749783
vn -0.482926 -0.259096 -0.836452
vn -0.302235 -0.796629 -0.523485
vn 0.000000 -0.966005 -0.258524
vn 0.000000 -0.866285 -0.499549
vn -0.000000 -0.707524 -0.706689
vn -0.000000 -0.500435 -0.865774
vn -0.000000 -0.259096 -0.965852
vn -0.000000 -0.796629 -0.604469
vn 0.129263 -0.966005 -0.223889
vn 0.249775 -0.866285 -0.432622
vn 0.353344 -0.707524 -0.612011
vn 0.432887 -0.500435 -0.749782
vn 0.482926 -0.259096 -0.836452
vn 0.302235 -0.796628 -0.523485
vn 0.223888 -0.966005 -0.129263
vn 0.432622 -0.866285 -0.249775
vn 0.612011 -0.707524 -0.353344
vn 0.749783 -0.500434 -0.432887
vn 0.836452 -0.259096 -0.482926
vn 0.523485 -0.796629 -0.302235
vn 0.258524 -0.966005 0.000000
vn 0.499549 -0.866285 0.000001
vn 0.706689 -0.707524 0.000001
vn 0.865774 -0.500435 -0.000000
vn 0.965852 -0.259096 -0.000000
vn 0.604469 -0.796629 -0.000000
vn 0.223889 -0.966004 0.129263
vn 0.432623 -0.866285 0.249775
vn 0.612011 -0.707524 0.353344
vn 0.749782 -0.500435 0.432887
vn 0.836452 -0.259096 0.482927
vn 0.523485 -0.796628 0.302235
vn 0.129263 -0.966005 0.223889
vn 0.249775 -0.866286 0.432622
vn 0.353344 -0.707524 0.612011
vn 0.432887 -0.500434 0.749783
vn 0.482926 -0.259096 0.836452
vn 0.302235 -0.796629 0.523485
vn -0.000000 -0.966005 0.258524
vn -0.000000 -0.866285 0.499549
vn 0.000000 -0.707524 0.706690
vn 0.000000 -0.500435 0.865774
vn 0.000000 -0.259096 0.965851
vn 0.000000 -0.796629 0.604469
vn -0.129263 -0.966005 0.223889
vn -0.249775 -0.866285 0.432622
vn -0.353344 -0.707524 0.612011
vn -0.432887 -0.500435 0.749782
vn -0.482927 -0.259096 0.836452
vn -0.302235 -0.796628 0.523485
vn -0.223888 -0.966005 0.129263
vn -0.432622 -0.866285 0.249775
vn -0.612011 -0.707524 0.353344
vn -0.749783 -0.500434 0.432887
vn -0.836452 -0.259096 0.482926
vn -0.523485 -0.796629 0.302235
vn 0.000000 -1.000000 0.000000
vt 0.714363 0.376238
vt 0.747525 0.500000
vt 0.628128 0.500000
vt 0.610962 0.435936
vt 0.803154 0.324974
vt 0.850053 0.500000
vt 0.871287 0.285637
vt 0.928725 0.500000
vt 0.914117 0.260909
vt 0.978181 0.500000
vt 0.928725 0.252475
vt 0.995050 0.500000
vt 0.500000 0.500000
vt 0.623762 0.285637
vt 0.564064 0.389038
vt 0.675026 0.196846
vt 0.714363 0.128713
vt 0.739091 0.085883
vt 0.747525 0.071275
vt 0.500000 0.252475
vt 0.500000 0.371872
vt 0.500000 0.149947
vt 0.500000 0.071275
vt 0.500000 0.021819
vt 0.500000 0.004950
vt 0.376238 0.285637
vt 0.435936 0.389038
vt 0.324974 0.196846
vt 0.285637 0.128713
vt 0.260909 0.085883
vt 0.252475 0.071275
vt 0.285637 0.376238
vt 0.389038 0.435936
vt 0.196846 0.324974
vt 0.128713 0.285637
vt 0.085883 0.260909
vt 0.071275 0.252475
vt 0.252475 0.500000
vt 0.371872 0.500000
vt 0.149947 0.500000
vt 0.071275 0.500000
vt 0.021819 0.500000
vt 0.004950 0.500000
vt 0.285637 0.623762
vt 0.389038 0.564064
vt 0.196846 0.675026
vt 0.128713 0.714363
vt 0.085883 0.739091
vt 0.071275 0.747525
vt 0.376238 0.714363
vt 0.435936 0.610962
vt 0.324974 0.803154
vt 0.285637 0.871287
vt 0.260909 0.914117
vt 0.252475 0.928725
vt 0.500000 0.747525
vt 0.500000 0.628128
vt 0.500000 0.850053
vt 0.500000 0.928725
vt 0.500000 0.978181
vt 0.500000 0.995050
vt 0.623762 0.714363
vt 0.564064 0.610962
vt 0.675026 0.803154
vt 0.714363 0.871287
vt 0.739091 0.914117
vt 0.747525 0.928725
vt 0.714363 0.623762
vt 0.610962 0.564064
vt 0.803154 0.675026
vt 0.871287 0.714363
vt 0.914117 0.739091
vt 0.928725 0.747525
vt 0.604681 0.439562
vt 0.620876 0.500000
vt 0.733514 0.500000
vt 0.702229 0.383243
vt 0.830239 0.500000
vt 0.785995 0.334881
vt 0.904458 0.500000
vt 0.850271 0.297771
vt 0.951114 0.500000
vt 0.890676 0.274443
vt 0.967028 0.500000
vt 0.904458 0.266486
vt 0.500000 0.500000
vt 0.560438 0.395319
vt 0.616757 0.297771
vt 0.665119 0.214005
vt 0.702229 0.149729
vt 0.725557 0.109324
vt 0.733514 0.095542
vt 0.500000 0.379124
vt 0.500000 0.266486
vt 0.500000 0.169761
vt 0.500000 0.095542
vt 0.500000 0.048886
vt 0.500000 0.032972
vt 0.439562 0.395319
vt 0.383243 0.297771
vt 0.334881 0.214005
vt 0.297771 0.149729
vt 0.274443 0.109324
vt 0.266486 0.095542
vt 0.395319 0.439562
vt 0.297771 0.383243
vt 0.214005 0.334881
vt 0.149729 0.297771
vt 0.109324 0.274443
vt 0.095542 0.266486
vt 0.379124 0.500000
vt 0.266486 0.500000
vt 0.169761 0.500000
vt 0.095542 0.500000
vt 0.048886 0.500000
vt 0.032972 0.500000
vt 0.395319 0.560438
vt 0.297771 0.616757
vt 0.214005 0.665119
vt 0.149729 0.702229
vt 0.109324 0.725557
vt 0.095542 0.733514
vt 0.439562 0.604681
vt 0.383243 0.702229
vt 0.334881 0.785995
vt 0.297771 0.850271
vt 0.274443 0.890676
vt 0.266486 0.904458
vt 0.500000 0.620876
vt 0.500000 0.733514
vt 0.500000 0.830239
vt 0.500000 0.904458
vt 0.500000 0.951114
vt 0.500000 0.967028
vt 0.560438 0.604681
vt 0.616757 0.702229
vt 0.665119 0.785995
vt 0.702229 0.850271
vt 0.725557 0.890676
vt 0.733514 0.904458
vt 0.604681 0.560438
vt 0.702229 0.616757
vt 0.785995 0.665119
vt 0.850271 0.702229
vt 0.890676 0.725557
vt 0.904458 0.733514
g dome
usemtl Material1
f 8/1/8 2/2/2 1/3/1 7/4/7 
f 9/5/9 3/6/3 2/2/2 8/1/8 
f 10/7/10 4/8/4 3/6/3 9/5/9 
f 11/9/11 5/10/5 4/8/4 10/7/10 
f 12/11/12 6/12/6 5/10/5 11/9/11 
f 7/4/7 1/3/1 73/13/73 
f 14/14/14 8/1/8 7/4/7 13/15/13 
f 15/16/15 9/5/9 8/1/8 14/14/14 
f 16/17/16 10/7/10 9/5/9 15/16/15 
f 17/18/17 11/9/11 10/7/10 16/17/16 
f 18/19/18 12/11/12 11/9/11 17/18/17 
f 13/15/13 7/4/7 73/13/73 
f 20/20/20 14/14/14 13/15/13 19/21/19 
f 21/22/21 15/16/15 14/14/14 20/20/20 
f 22/23/22 16/17/16 15/16/15 21/22/21 
f 23/24/23 17/18/17 16/17/16 22/23/22 
f 24/25/24 18/19/18 17/18/17 23/24/23 
f 19/21/19 13/15/13 73/13/73 
f 26/26/26 20/20/20 19/21/19 25/27/25 
f 27/28/27 21/22/21 20/20/20 26/26/26 
f 28/29/28 22/23/22 21/22/21 27/28/27 
f 29/30/29 23/24/23 22/23/22 28/29/28 
f 30/31/30 24/25/24 23/24/23 29/30/29 
f 25/27/25 19/21/19 73/13/73 
f 32/32/32 26/26/26 25/27/25 31/33/31 
f 33/34/33 27/28/27 26/26/26 32/32/32 
f 34/35/34 28/29/28 27/28/27 33/34/33 
f 35/36/35 29/30/29 28/29/28 34/35/34 
f 36/37/36 30/31/30 29/30/29 35/36/35 
f 31/33/31 25/27/25 73/13/73 
f 38/38/38 32/32/32 31/33/31 37/39/37 
f 39/40/39 33/34/33 32/32/32 38/38/38 
f 40/41/40 34/35/34 33/34/33 39/40/39 
f 41/42/41 35/36/35 34/35/34 40/41/40 
f 42/43/42 36/37/36 35/36/35 41/42/41 
f 37/39/37 31/33/31 73/13/73 
f 44/44/44 38/38/38 37/39/37 43/45/43 
f 45/46/45 39/40/39 38/38/38 44/44/44 
f 46/47/46 40/41/40 39/40/39 45/46/45 
f 47/48/47 41/42/41 40/41/40 46/47/46 
f 48/49/48 42/43/42 41/42/41 47/48/47 
f 43/45/43 37/39/37 73/13/73 
f 50/50/50 44/44/44 43/45/43 49/51/49 
f 51/52/51 45/46/45 44/44/44 50/50/50 
f 52/53/52 46/47/46 45/46/45 51/52/51 
f 53/54/53 47/48/47 46/47/46 52/53/52 
f 54/55/54 48/49/48 47/48/47 53/54/53 
f 49/51/49 43/45/43 73/13/73 
f 56/56/56 50/50/50 49/51/49 55/57/55 
f 57/58/57 51/52/51 50/50/50 56/56/56 
f 58/59/58 52/53/52 51/52/51 57/58/57 
f 59/60/59 53/54/53 52/53/52 58/59/58 
f 60/61/60 54/55/54 53/54/53 59/60/59 
f 55/57/55 49/51/49 73/13/73 
f 62/62/62 56/56/56 55/57/55 61/63/61 
f 63/64/63 57/58/57 56/56/56 62/62/62 
f 64/65/64 58/59/58 57/58/57 63/64/63 
f 65/66/65 59/60/59 58/59/58 64/65/64 
f 66/67/66 60/61/60 59/60/59 65/66/65 
f 61/63/61 55/57/55 73/13/73 
f 68/68/68 62/62/62 61/63/61 67/69/67 
f 69/70/69 63/64/63 62/62/62 68/68/68 
f 70/71/70 64/65/64 63/64/63 69/70/69 
f 71/72/71 65/66/65 64/65/64 70/71/70 
f 72/73/72 66/67/66 65/66/65 71/72/71 
f 67/69/67 61/63/61 73/13/73 
f 2/2/2 68/68/68 67/69/67 1/3/1 
f 3/6/3 69/70/69 68/68/68 2/2/2 
f 4/8/4 70/71/70 69/70/69 3/6/3 
f 5/10/5 71/72/71 70/71/70 4/8/4 
f 6/12/6 72/73/72 71/72/71 5/10/5 
f 1/3/1 67/69/67 73/13/73 
f 80/74/80 74/75/74 75/76/75 81/77/81 
f 81/77/81 75/76/75 76/78/76 82/79/82 
f 82/79/82 76/78/76 77/80/77 83/81/83 
f 83/81/83 77/80/77 78/82/78 84/83/84 
f 84/83/84 78/82/78 79/84/79 85/85/85 
f 146/86/146 74/75/74 80/74/80 
f 86/87/86 80/74/80 81/77/81 87/88/87 
f 87/88/87 81/77/81 82/79/82 88/89/88 
f 88/89/88 82/79/82 83/81/83 89/90/89 
f 89/90/89 83/81/83 84/83/84 90/91/90 
f 90/91/90 84/83/84 85/85/85 91/92/91 
f 146/86/146 80/74/80 86/87/86 
f 92/93/92 86/87/86 87/88/87 93/94/93 
f 93/94/93 87/88/87 88/89/88 94/95/94 
f 94/95/94 88/89/88 89/90/89 95/96/95 
f 95/96/95 89/90/89 90/91/90 96/97/96 
f 96/97/96 90/91/90 91/92/91 97/98/97 
f 146/86/146 86/87/86 92/93/92 
f 98/99/98 92/93/92 93/94/93 99/100/99 
f 99/100/99 93/94/93 94/95/94 100/101/100 
f 100/101/100 94/95/94 95/96/95 101/102/101 
f 101/102/101 95/96/95 96/97/96 102/103/102 
f 102/103/102 96/97/96 97/98/97 103/104/103 
f 146/86/146 92/93/92 98/99/98 
f 104/105/104 98/99/98 99/100/99 105/106/105 
f 105/106/105 99/100/99 100/101/100 106/107/106 
f 106/107/106 100/101/100 101/102/101 107/108/107 
f 107/108/107 101/102/101 102/103/102 108/109/108 
f 108/109/108 102/103/102 103/104/103 109/110/109 
f 146/86/146 98/99/98 104/105/104 
f 110/111/110 104/105/104 105/106/105 111/112/111 
f 111/112/111 105/106/105 106/107/106 112/113/112 
f 112/113/112 106/107/106 107/108/107 113/114/113 
f 113/114/113 107/108/107 108/109/108 114/115/114 
f 114/115/114 108/109/108 109/110/109 115/116/115 
f 146/86/146 104/105/104 110/111/110 
f 116/117/116 110/111/110 111/112/111 117/118/117 
f 117/118/117 111/112/111 112/113/112 118/119/118 
f 118/119/118 112/113/112 113/114/113 119/120/119 
f 119/120/119 113/114/113 114/115/114 120/121/120 
f 120/121/120 114/115/114 115/116/115 121/122/121 
f 146/86/146 110/111/110 116/117/116 
f 122/123/122 116/117/116 117/118/117 123/124/123 
f 123/124/123 117/118/117 118/119/118 124/125/124 
f 124/125/124 118/119/118 119/120/119 125/126/125 
f 125/126/125 119/120/119 120/121/120 126/127/126 
f 126/127/126 120/121/120 121/122/121 127/128/127 
f 146/86/146 116/117/116 122/123/122 
f 128/129/128 122/123/122 123/124/123 129/130/129 
f 129/130/129 123/124/123 124/125/124 130/131/130 
f 130/131/130 124/125/124 125/126/125 131/132/131 
f 131/132/131 125/126/125 126/127/126 132/133/132 
f 132/133/132 126/127/126 127/128/127 133/134/133 
f 146/86/146 122/123/122 128/129/128 
f 134/135/134 128/129/128 129/130/129 135/136/135 
f 135/136/135 129/130/129 130/131/130 136/137/136 
f 136/137/136 130/131/130 131/132/131 137/138/137 
f 137/138/137 131/132/131 132/133/132 138/139/138 
f 138/139/138 132/133/132 133/134/133 139/140/139 
f 146/86/146 128/129/128 134/135/134 
f 140/141/140 134/135/134 135/136/135 141/142/141 
f 141/142/141 135/136/135 136/137/136 142/143/142 
f 142/143/142 136/137/136 137/138/137 143/144/143 
f 143/144/143 137/138/137 138/139/138 144/145/144 
f 144/145/144 138/139/138 139/140/139 145/146/145 
f 146/86/146 134/135/134 140/141/140 
f 74/75/74 140/141/140 141/142/141 75/76/75 
f 75/76/75 141/142/141 142/143/142 76/78/76 
f 76/78/76 142/143/142 143/144/143 77/80/77 
f 77/80/77 143/144/143 144/145/144 78/82/78 
f 78/82/78 144/145/144 145/146/145 79/84/79 
f 146/86/146 140/141/140 74/75/74 
f 36/37/36 42/43/42 115/116/115 109/110/109 
f 30/31/30 36/37/36 109/110/109 103/104/103 
f 24/25/24 30/31/30 103/104/103 97/98/97 
f 18/19/18 24/25/24 97/98/97 91/92/91 
f 12/11/12 18/19/18 91/92/91 85/85/85 
f 6/12/6 12/11/12 85/85/85 79/84/79 
f 72/73/72 6/12/6 79/84/79 145/146/145 
f 66/67/66 72/73/72 145/146/145 139/140/139 
f 60/61/60 66/67/66 139/140/139 133/134/133 
f 54/55/54 60/61/60 133/134/133 127/128/127 
f 48/49/48 54/55/54 127/128/127 121/122/121 
f 42/43/42 48/49/48 121/122/121 115/116/115 
